<?xml version="1.0" encoding="UTF-8" standalone="no"?>
<svg contentStyleType="text/css" height="307px" preserveAspectRatio="none" style="width:595px;height:307px;background:#FFFFFF;"
     version="1.1" viewBox="0 0 595 307" width="595px" xmlns="http://www.w3.org/2000/svg"
     zoomAndPan="magnify"><defs/><g><!--MD5=[a835c788616ebf59dbbfde84b07c7cae]
entity smartcomponent--><g id="elem_smartcomponent"><rect fill="#F1F1F1" height="22.4883" rx="2.5" ry="2.5" style="stroke:#181818;stroke-width:0.5;" width="173" x="147" y="20"/><text fill="#000000" font-family="sans-serif" font-size="14" lengthAdjust="spacing" textLength="153" x="157" y="36.5352">En "smart" komponent</text></g><!--MD5=[703cf83647afaab3906072afad071847]
entity dumbcomponent1--><g id="elem_dumbcomponent1"><rect fill="#F1F1F1" height="63.4648" rx="2.5" ry="2.5" style="stroke:#181818;stroke-width:0.5;" width="209" x="7" y="115"/><text fill="#000000" font-family="sans-serif" font-size="14" lengthAdjust="spacing" textLength="189" x="17" y="131.5352">En första "dum" komponent</text><line style="stroke:#181818;stroke-width:1.0;" x1="8" x2="215" y1="134.4883" y2="134.4883"/><text fill="#000000" font-family="sans-serif" font-size="14" lengthAdjust="spacing" textLength="60" x="17" y="152.0234">@Input a</text><text fill="#000000" font-family="sans-serif" font-size="14" lengthAdjust="spacing" textLength="73" x="17" y="168.5117">@Output b</text></g><!--MD5=[aad14432f4a797952e2b4efd48e3989b]
entity dumbcomponent2--><g id="elem_dumbcomponent2"><rect fill="#F1F1F1" height="63.4648" rx="2.5" ry="2.5" style="stroke:#181818;stroke-width:0.5;" width="209" x="251" y="115"/><text fill="#000000" font-family="sans-serif" font-size="14" lengthAdjust="spacing" textLength="189" x="261" y="131.5352">En andra "dum" komponent</text><line style="stroke:#181818;stroke-width:1.0;" x1="252" x2="459" y1="134.4883" y2="134.4883"/><text fill="#000000" font-family="sans-serif" font-size="14" lengthAdjust="spacing" textLength="59" x="261" y="152.0234">@Input c</text><text fill="#000000" font-family="sans-serif" font-size="14" lengthAdjust="spacing" textLength="73" x="261" y="168.5117">@Output d</text></g><!--MD5=[bdd5189cafd4e2c878bfa75ab7bf1aca]
entity dumbcomponent3--><g id="elem_dumbcomponent3"><rect fill="#F1F1F1" height="63.4648" rx="2.5" ry="2.5" style="stroke:#181818;stroke-width:0.5;" width="209" x="7" y="238"/><text fill="#000000" font-family="sans-serif" font-size="14" lengthAdjust="spacing" textLength="189" x="17" y="254.5352">En tredje "dum" komponent</text><line style="stroke:#181818;stroke-width:1.0;" x1="8" x2="215" y1="257.4883" y2="257.4883"/><text fill="#000000" font-family="sans-serif" font-size="14" lengthAdjust="spacing" textLength="60" x="17" y="275.0234">@Input e</text><text fill="#000000" font-family="sans-serif" font-size="14" lengthAdjust="spacing" textLength="69" x="17" y="291.5117">@Output f</text></g><!--MD5=[3de993ac3dd18e6abf686ebe9c2e07b2]
class Presenter--><g id="elem_Presenter"><rect codeLine="26" fill="#F1F1F1" height="48" id="Presenter" rx="2.5" ry="2.5" style="stroke:#181818;stroke-width:0.5;" width="97" x="355" y="7"/><ellipse cx="370" cy="23" fill="#ADD1B2" rx="11" ry="11" style="stroke:#181818;stroke-width:1.0;"/><path d="M372.4731,29.1431 Q371.8921,29.4419 371.2529,29.5913 Q370.6138,29.7407 369.9082,29.7407 Q367.4014,29.7407 366.0815,28.0889 Q364.7617,26.437 364.7617,23.3159 Q364.7617,20.1865 366.0815,18.5347 Q367.4014,16.8828 369.9082,16.8828 Q370.6138,16.8828 371.2612,17.0322 Q371.9087,17.1816 372.4731,17.4805 L372.4731,20.2031 Q371.8423,19.6221 371.2488,19.3523 Q370.6553,19.0825 370.0244,19.0825 Q368.6797,19.0825 367.9949,20.1492 Q367.3101,21.2158 367.3101,23.3159 Q367.3101,25.4077 367.9949,26.4744 Q368.6797,27.541 370.0244,27.541 Q370.6553,27.541 371.2488,27.2712 Q371.8423,27.0015 372.4731,26.4204 Z " fill="#000000"/><text fill="#000000" font-family="sans-serif" font-size="14" lengthAdjust="spacing" textLength="65" x="384" y="28.291">Presenter</text><line style="stroke:#181818;stroke-width:0.5;" x1="356" x2="451" y1="39" y2="39"/><line style="stroke:#181818;stroke-width:0.5;" x1="356" x2="451" y1="47" y2="47"/></g><!--MD5=[7d9793a6af5c131a25af6f0766a263bb]
class HttpClient--><g id="elem_HttpClient"><rect codeLine="27" fill="#F1F1F1" height="48" id="HttpClient" rx="2.5" ry="2.5" style="stroke:#181818;stroke-width:0.5;" width="101" x="487" y="7"/><ellipse cx="502" cy="23" fill="#ADD1B2" rx="11" ry="11" style="stroke:#181818;stroke-width:1.0;"/><path d="M504.4731,29.1431 Q503.8921,29.4419 503.2529,29.5913 Q502.6138,29.7407 501.9082,29.7407 Q499.4014,29.7407 498.0815,28.0889 Q496.7617,26.437 496.7617,23.3159 Q496.7617,20.1865 498.0815,18.5347 Q499.4014,16.8828 501.9082,16.8828 Q502.6138,16.8828 503.2612,17.0322 Q503.9087,17.1816 504.4731,17.4805 L504.4731,20.2031 Q503.8423,19.6221 503.2488,19.3523 Q502.6553,19.0825 502.0244,19.0825 Q500.6797,19.0825 499.9949,20.1492 Q499.3101,21.2158 499.3101,23.3159 Q499.3101,25.4077 499.9949,26.4744 Q500.6797,27.541 502.0244,27.541 Q502.6553,27.541 503.2488,27.2712 Q503.8423,27.0015 504.4731,26.4204 Z " fill="#000000"/><text fill="#000000" font-family="sans-serif" font-size="14" lengthAdjust="spacing" textLength="69" x="516" y="28.291">HttpClient</text><line style="stroke:#181818;stroke-width:0.5;" x1="488" x2="587" y1="39" y2="39"/><line style="stroke:#181818;stroke-width:0.5;" x1="488" x2="587" y1="47" y2="47"/></g><!--MD5=[0768c9610d859208c8577724b3d9e0f2]
link Presenter to HttpClient--><g id="link_Presenter_HttpClient"><path codeLine="29" d="M452.18,31 C462.02,31 471.86,31 481.7,31 " fill="none" id="Presenter-to-HttpClient" style="stroke:#181818;stroke-width:1.0;stroke-dasharray:7.0,7.0;"/><polygon fill="#181818" points="486.84,31,477.84,27,481.84,31,477.84,35,486.84,31" style="stroke:#181818;stroke-width:1.0;"/></g><!--MD5=[75966041d84c85c0c6cd28a285deec03]
link smartcomponent to Presenter--><g id="link_smartcomponent_Presenter"><path codeLine="30" d="M320.16,31 C330.05,31 339.94,31 349.82,31 " fill="none" id="smartcomponent-to-Presenter" style="stroke:#181818;stroke-width:1.0;stroke-dasharray:7.0,7.0;"/><polygon fill="#181818" points="354.99,31,345.99,27,349.99,31,345.99,35,354.99,31" style="stroke:#181818;stroke-width:1.0;"/></g><!--MD5=[6ce4c2c052c8ffb8c27248724c197142]
link smartcomponent to dumbcomponent1--><g id="link_smartcomponent_dumbcomponent1"><path codeLine="31" d="M213.8802,50.2395 C213.8802,50.2395 174.02,87.34 153.98,105.98 " fill="none" id="smartcomponent-dumbcomponent1" style="stroke:#181818;stroke-width:1.0;"/><polygon fill="#181818" points="144.42,114.87,153.7329,111.6653,148.0797,111.4631,148.2819,105.8099,144.42,114.87" style="stroke:#181818;stroke-width:1.0;"/><line style="stroke:#181818;stroke-width:1.0;" x1="148.0797" x2="153.94" y1="111.4631" y2="106.02"/><polygon fill="none" points="222.67,42.07,215.552,43.2248,213.8802,50.2395,220.9983,49.0847,222.67,42.07" style="stroke:#181818;stroke-width:1.0;"/></g><!--MD5=[b2619c5031f736f7672be40da7593327]
link smartcomponent to dumbcomponent2--><g id="link_smartcomponent_dumbcomponent2"><path codeLine="32" d="M253.1198,50.2395 C253.1198,50.2395 292.98,87.34 313.02,105.98 " fill="none" id="smartcomponent-dumbcomponent2" style="stroke:#181818;stroke-width:1.0;"/><polygon fill="#181818" points="322.58,114.87,318.7181,105.8099,318.9203,111.4631,313.2671,111.6653,322.58,114.87" style="stroke:#181818;stroke-width:1.0;"/><line style="stroke:#181818;stroke-width:1.0;" x1="318.9203" x2="313.06" y1="111.4631" y2="106.02"/><polygon fill="none" points="244.33,42.07,246.0017,49.0847,253.1198,50.2395,251.448,43.2248,244.33,42.07" style="stroke:#181818;stroke-width:1.0;"/></g><!--MD5=[35e5104782b68be5b37c4897ecb38a66]
link dumbcomponent1 to dumbcomponent3--><g id="link_dumbcomponent1_dumbcomponent3"><path codeLine="33" d="M111.5,190.03 C111.5,190.03 111.5,213.76 111.5,224.68 " fill="none" id="dumbcomponent1-dumbcomponent3" style="stroke:#181818;stroke-width:1.0;"/><polygon fill="#181818" points="111.5,237.98,115.5,228.98,111.5,232.98,107.5,228.98,111.5,237.98" style="stroke:#181818;stroke-width:1.0;"/><line style="stroke:#181818;stroke-width:1.0;" x1="111.5" x2="111.5" y1="232.98" y2="224.98"/><polygon fill="none" points="111.5,178.03,107.5,184.03,111.5,190.03,115.5,184.03,111.5,178.03" style="stroke:#181818;stroke-width:1.0;"/></g><!--MD5=[9c6cfe64a24c4a67f2bc9901940c257c]
@startuml
card smartcomponent [
  En "smart" komponent
]

card dumbcomponent1 [
  En första "dum" komponent
  - -
  @Input a
  @Output b
]

card dumbcomponent2 [
  En andra "dum" komponent
  - -
  @Input c
  @Output d
]

card dumbcomponent3 [
  En tredje "dum" komponent
  - -
  @Input e
  @Output f
]

class Presenter {}
class HttpClient {}

Presenter .right.> HttpClient
smartcomponent .right.> Presenter
smartcomponent o-down-> dumbcomponent1
smartcomponent o-down-> dumbcomponent2
dumbcomponent1 o-down-> dumbcomponent3

@enduml

PlantUML version 1.2022.2(Sat Mar 05 17:30:19 CET 2022)
(GPL source distribution)
Java Runtime: OpenJDK Runtime Environment
JVM: OpenJDK 64-Bit Server VM
Default Encoding: UTF-8
Language: sv
Country: SE
--></g></svg>
